PathFileType  4	(X/Y/Z) C:\Users\antoi\Documents\MyRepositories\mobilecap\ResultsAnalysis
DataRate	CameraRate	NumFrames	NumMarkers	Units	OrigDataRate	OrigDataStartFrame	OrigNumFrames
100.0	100.0	4	51	mm	100.0	100	132
Frame#	Time	r_knee			r_shank_antsup			r_ankle			r_calc			r_5meta			r_toe			L_knee			L_shank_antsup			L_ankle			L_calc			L_5meta			L_toe			r_sh2			r_sh3			r_sh4			L_sh2			L_sh3			r_thigh1			r_thigh2			r_thigh3			r_thigh4			r_thigh5			L_thigh1			L_thigh2			L_thigh3			L_thigh4			r.ASIS			r.PSIS			L.ASIS			L.PSIS			C7			R_Shoulder			L_Shoulder			R_Sternum			L_Sternum			R_humerus			R_elbow_med			R_elbow_lat			R_forearm			R_wrist_radius			R_wrist_ulna			L_humerus			L_elbow_med			L_elbow_lat			L_forearm			L_wrist_radius			L_wrist_ulna			R_HJC			L_HJC			R_HJC_reg			L_HJC_reg			
		X1	Y1	Z1	X2	Y2	Z2	X3	Y3	Z3	X4	Y4	Z4	X5	Y5	Z5	X6	Y6	Z6	X7	Y7	Z7	X8	Y8	Z8	X9	Y9	Z9	X10	Y10	Z10	X11	Y11	Z11	X12	Y12	Z12	X13	Y13	Z13	X14	Y14	Z14	X15	Y15	Z15	X16	Y16	Z16	X17	Y17	Z17	X18	Y18	Z18	X19	Y19	Z19	X20	Y20	Z20	X21	Y21	Z21	X22	Y22	Z22	X23	Y23	Z23	X24	Y24	Z24	X25	Y25	Z25	X26	Y26	Z26	X27	Y27	Z27	X28	Y28	Z28	X29	Y29	Z29	X30	Y30	Z30	X31	Y31	Z31	X32	Y32	Z32	X33	Y33	Z33	X34	Y34	Z34	X35	Y35	Z35	X36	Y36	Z36	X37	Y37	Z37	X38	Y38	Z38	X39	Y39	Z39	X40	Y40	Z40	X41	Y41	Z41	X42	Y42	Z42	X43	Y43	Z43	X44	Y44	Z44	X45	Y45	Z45	X46	Y46	Z46	X47	Y47	Z47	X48	Y48	Z48	X49	Y49	Z49	X50	Y50	Z50	X51	Y51	Z51	

100	0.99000000	1229.17827	504.09327	-76.65230	1285.22094	455.31595	-86.07377	1335.77609	114.26812	-118.39125	1290.41055	65.41236	-170.61848	1449.15853	84.39634	-75.40441	1491.77754	136.31740	-116.68301	959.27661	492.86406	-350.04836	964.24910	393.96814	-354.86965	836.80085	107.44369	-311.93068	767.71317	72.46317	-259.56778	926.68058	41.49558	-364.61720	978.08043	61.86676	-312.69924	1294.52669	339.23917	-74.10113	1202.76794	440.32533	-76.32646	1220.20421	329.17212	-84.52309	880.55444	425.69766	-351.87319	850.98099	306.89660	-351.03255	1161.07282	818.78098	-45.92059	1203.08522	712.85646	-52.43992	1103.89540	668.89843	-37.79252	1056.01449	774.92601	-28.07771	1159.05837	671.94027	-23.55491	1054.00170	744.53569	-406.54697	1031.96666	612.54652	-375.85255	946.72100	766.26921	-369.27918	929.22409	629.42890	-344.85930	1138.56960	958.77006	-92.33220	953.14156	997.95247	-169.09321	1149.52503	935.35447	-340.97508	948.70134	1004.49766	-269.55348	944.21073	1398.18758	-259.08488	1014.63681	1375.51170	-65.19858	1055.37656	1374.91242	-420.35243	1080.45680	1381.46767	-214.81811	1091.61020	1382.48401	-256.62333	996.28641	1241.29425	-0.50160	927.10521	1037.41208	-56.88146	927.89038	1055.58983	13.44924	966.27862	928.14983	56.98415	970.11417	794.22435	80.25944	937.20599	794.54582	92.00483	1111.70339	1272.86941	-478.05793	1170.67719	1039.57943	-430.96509	1182.34664	1071.78922	-504.12927	1293.53178	1041.35369	-499.57861	1425.21440	953.51508	-505.83583	1406.64637	933.47798	-528.22340	1060.53576	879.98664	-110.23744	1062.17168	869.95430	-316.45741	1075.18634	867.46115	-128.72474	1067.91562	878.17727	-293.20417	
101	1.00000000	1237.59690	500.29133	-77.66297	1295.99492	454.27020	-85.89484	1361.14750	114.92492	-116.04134	1318.49088	62.99647	-167.97881	1475.97492	90.13837	-72.60285	1515.94395	144.07378	-113.87705	966.37919	492.09389	-349.96771	969.83721	393.00306	-354.91167	837.81615	108.43780	-312.24815	768.22655	73.87391	-259.90097	926.84688	41.38403	-364.78111	978.33073	61.52078	-312.94398	1309.35932	338.61617	-73.53410	1213.78840	436.18001	-77.69217	1235.84230	325.49984	-85.35430	886.66247	426.02044	-352.25200	855.22209	307.61764	-351.34880	1170.61111	814.27962	-44.51278	1211.56631	707.91811	-51.99998	1111.72966	665.35945	-38.84951	1065.10382	771.64784	-28.62004	1166.74767	667.21983	-24.00006	1064.20556	742.63587	-406.15152	1040.52745	610.98330	-375.44278	957.22205	765.77795	-369.16725	937.86047	629.07510	-344.92675	1150.42986	956.02549	-91.01129	965.03434	995.35106	-167.79326	1161.31130	932.81221	-339.72691	960.68872	1002.10971	-268.31460	956.30678	1395.71166	-258.24903	1026.77051	1373.23872	-64.20913	1068.01696	1372.52326	-419.28709	1092.72264	1379.07808	-213.81748	1103.73215	1379.97402	-255.47157	1007.06222	1239.17351	0.37343	937.14900	1035.80110	-56.56982	937.15187	1054.14953	13.66420	972.77344	926.51030	58.41600	974.00351	792.15576	82.10802	940.96422	793.47523	93.41176	1125.39052	1271.15888	-477.03338	1186.79637	1038.53299	-430.31401	1198.69030	1071.28994	-503.24695	1310.44258	1043.76978	-497.42213	1444.76555	959.93982	-502.43693	1426.98552	939.47067	-525.09128	1072.31739	877.30179	-109.04974	1073.97584	867.46794	-315.27927	1086.94574	864.60789	-127.65901	1079.83401	875.66872	-292.15652	
102	1.01000000	1246.81467	496.99497	-78.52702	1307.09962	453.09792	-85.90496	1382.77316	115.38623	-113.60386	1342.28269	60.96010	-165.09429	1498.68003	94.82835	-69.82221	1536.45566	149.98846	-111.40839	974.05219	491.26872	-349.89546	975.94032	391.99198	-354.92827	838.99840	109.64443	-312.62719	768.85265	75.65953	-260.30718	927.04093	41.28554	-364.97094	978.57651	61.08884	-313.23787	1323.43689	337.90269	-72.97672	1225.18501	432.77862	-78.67368	1250.68416	322.44711	-85.75403	893.32107	426.36721	-352.60069	859.88096	308.43789	-351.69147	1180.22506	810.05674	-42.80125	1220.37734	703.40369	-51.27594	1119.93150	661.96362	-40.01312	1074.33516	768.44042	-29.23023	1174.75556	662.79466	-24.35027	1074.66613	740.74861	-405.73942	1049.49515	609.42262	-375.03711	968.03350	765.15050	-368.97175	946.99013	628.61175	-344.86949	1162.41724	953.30582	-89.66006	977.05049	992.76298	-166.40291	1173.03951	930.32964	-338.53865	972.70854	999.72963	-266.96276	968.49478	1393.26239	-257.20766	1039.07350	1370.99678	-63.06795	1080.61635	1370.12898	-418.10367	1105.07833	1376.73395	-212.69364	1115.88765	1377.50039	-254.20136	1018.21958	1237.04953	1.39043	947.67478	1034.13491	-56.09039	946.92906	1052.68175	14.07487	979.90281	924.89795	59.94884	978.60907	790.24762	84.10962	945.38654	792.40699	94.92910	1139.05400	1269.41516	-475.85902	1202.57979	1037.40917	-429.41623	1214.61809	1070.62233	-502.10623	1326.83488	1045.89140	-495.14302	1463.50985	965.92249	-498.95146	1446.50434	945.03940	-521.82140	1084.23549	874.63421	-107.83676	1085.77940	865.01920	-314.07747	1098.82971	861.77289	-126.51788	1091.72412	873.17469	-291.07853	
103	1.02000000	1257.01283	494.27266	-79.09220	1318.63717	451.72465	-86.05233	1400.48810	115.24395	-111.29048	1361.52280	59.00262	-162.27311	1517.13171	97.85475	-67.24212	1553.36118	153.47767	-109.37831	982.26466	490.40756	-349.80249	982.54044	390.95550	-354.91287	840.35121	111.09529	-313.06274	769.61866	77.87138	-260.78383	927.27401	41.20776	-365.19286	978.82875	60.57284	-313.57299	1336.82684	336.92535	-72.43736	1237.00021	430.10042	-79.06193	1264.63766	319.94167	-85.55118	900.49850	426.77426	-352.87513	864.94779	309.39996	-352.02580	1190.18814	806.37045	-40.93942	1229.82758	699.57268	-50.34353	1128.85563	658.84825	-41.11388	1083.98820	765.43343	-29.76481	1183.48075	658.92067	-24.55849	1085.38229	738.90476	-405.30445	1058.85604	607.88469	-374.63420	979.14418	764.40085	-368.64488	956.60373	628.05515	-344.63769	1174.59121	950.64805	-88.31239	989.21757	990.28143	-164.93696	1184.76542	927.91983	-337.42203	984.77521	997.43182	-265.51351	980.75759	1390.89421	-255.96486	1051.51916	1368.82581	-61.77502	1093.18174	1367.78359	-416.81170	1117.51401	1374.49924	-211.43866	1128.10806	1375.14639	-252.81405	1029.76050	1234.96343	2.54941	958.71815	1032.42502	-55.42857	957.23896	1051.21252	14.69493	987.71074	923.32935	61.57677	983.98856	788.55079	86.26406	950.52445	791.36081	96.56676	1152.66278	1267.67311	-474.51076	1217.99502	1036.21681	-428.28792	1230.09634	1069.80570	-500.72568	1342.70278	1047.71873	-492.75044	1481.45105	971.42720	-495.38457	1465.18267	950.14284	-518.42860	1096.31227	872.04574	-106.60861	1097.59308	862.64951	-312.86100	1110.87005	859.03140	-125.30249	1103.59686	870.73892	-289.95985	
